<?xml version="1.0"?>
<svg width="640" height="480" xmlns="http://www.w3.org/2000/svg" xmlns:svg="http://www.w3.org/2000/svg">
 <!-- Created with SVG-edit - https://github.com/SVG-Edit/svgedit-->
 <g class="layer">
  <title>Layer 1</title>
  <path d="m57.222497,106.979467l63.065045,0l19.487584,-61.114725l19.487595,61.114725l63.065034,0l-51.0206,37.770545l19.488593,61.114725l-51.020622,-37.771574l-51.020611,37.771574l19.488598,-61.114725l-51.020617,-37.770545l0.000001,0z" fill="none" id="svg_37" stroke="#000000" stroke-dasharray="null" stroke-linecap="null" stroke-linejoin="null" stroke-width="5"/>
  <path d="m211.307093,21.697502c-21.618901,15.53736 -51.500262,15.688178 -73.283368,0.46323c-20.950627,14.648318 -49.404156,15.067637 -70.784233,1.257415l-38.444255,36.710059c23.648604,22.990307 23.511154,59.928065 -0.404117,82.760748c-3.173993,7.795526 -4.837504,7.419612 -5.183767,15.270026c-0.814332,18.900526 3.954459,36.532303 18.891835,49.811628c13.343473,11.862153 31.451127,16.893136 48.844953,15.098086c29.045552,1.43294 42.970206,13.444572 48.813044,20.628824c7.889659,-7.67631 20.1588,-20.016851 57.448382,-21.55524c22.260311,-3.067949 30.304704,-8.024214 40.751952,-17.187467c14.06171,-12.500656 18.978585,-28.330206 18.564178,-45.918361c-0.172086,-7.301742 -1.10783,-9.840304 -5.728178,-19.16336c-24.026183,-22.938549 -24.04366,-60.115854 -0.063776,-83.082145l-39.42265,-35.093443z" fill="none" id="svg_39" stroke="#000000" stroke-dasharray="null" stroke-linecap="null" stroke-linejoin="null" stroke-width="5"/>
  <text fill="#000000" font-family="serif" font-size="24" id="svg_40" stroke="#000000" stroke-dasharray="null" stroke-linecap="null" stroke-linejoin="null" stroke-width="0" text-anchor="middle" x="119.5" xml:space="preserve" y="137.5"/>
  <text fill="#000000" font-family="serif" font-size="24" font-weight="bold" id="svg_42" stroke="#000000" stroke-dasharray="null" stroke-linecap="null" stroke-linejoin="null" stroke-width="0" text-anchor="middle" x="108.5" xml:space="preserve" y="99.5">O</text>
  <text fill="#000000" font-family="serif" font-size="24" font-weight="bold" id="svg_43" stroke="#000000" stroke-dasharray="null" stroke-linecap="null" stroke-linejoin="null" stroke-width="0" text-anchor="middle" x="170.507813" xml:space="preserve" y="98.5">A</text>
  <text fill="#000000" font-family="serif" font-size="24" font-weight="bold" id="svg_44" stroke="#000000" stroke-dasharray="null" stroke-linecap="null" stroke-linejoin="null" stroke-width="0" text-anchor="middle" x="90.679688" xml:space="preserve" y="155.5">A</text>
  <text fill="#000000" font-family="serif" font-size="24" font-weight="bold" id="svg_45" stroke="#000000" stroke-dasharray="null" stroke-linecap="null" stroke-linejoin="null" stroke-width="0" text-anchor="middle" x="187.679688" xml:space="preserve" y="157.5">S</text>
  <path d="m158.980753,155.343067c0,0.656074 -0.531533,1.187609 -1.18761,1.187609l-7.605135,0c-0.656074,0 -1.187609,-0.531533 -1.187609,-1.187609l0,-16.157376c0,-0.656023 0.531533,-1.187609 1.187609,-1.187609l7.605135,0c0.656077,0 1.18761,0.531585 1.18761,1.187609l0,16.157376zm-28.156313,0c0,0.656074 -0.531637,1.187609 -1.18761,1.187609l-7.605238,0c-0.655973,0 -1.187609,-0.531533 -1.187609,-1.187609l0,-16.157376c0,-0.656023 0.531636,-1.187609 1.187609,-1.187609l7.605238,0c0.655973,0 1.18761,0.531585 1.18761,1.187609l0,16.157376zm9.188034,-43.812389c-13.761876,0 -24.93333,11.070426 -25.104896,24.790306l4.356896,0c0.141277,-11.339632 9.374794,-20.489009 20.748,-20.489009c11.373204,0 20.606726,9.149377 20.746352,20.489009l4.356795,0c-0.169818,-13.71988 -11.344559,-24.790306 -25.103148,-24.790306l0.000002,0l-0.000001,0zm-25.069576,37.357849l4.277838,0l0,-12.592799l-4.277838,0l0,12.592799zm45.780613,-12.594494l0,12.592853l4.435848,0l0,-12.592853l-4.435848,0z" fill="#000000" id="svg_56" stroke="#000000" stroke-dasharray="null" stroke-linecap="null" stroke-linejoin="null" stroke-width="5"/>
 </g>
</svg>